<mxfile host="app.diagrams.net" modified="2023-05-22T07:11:16.977Z" agent="Mozilla/5.0 (Windows NT 10.0; Win64; x64) AppleWebKit/537.36 (KHTML, like Gecko) Chrome/113.0.0.0 Safari/537.36" etag="N3MRlzsqL2ZpyueENcvQ" version="21.3.2" type="device">
  <diagram name="Page-1" id="O2ltFx7MD1BKSwTohkvc">
    <mxGraphModel dx="2072" dy="1106" grid="1" gridSize="10" guides="1" tooltips="1" connect="1" arrows="1" fold="1" page="1" pageScale="1" pageWidth="827" pageHeight="1169" math="0" shadow="0">
      <root>
        <mxCell id="0" />
        <mxCell id="1" parent="0" />
        <mxCell id="6VsXwScRPvSoh_kbBZkx-1" value="Order Service" style="rounded=1;whiteSpace=wrap;html=1;" parent="1" vertex="1">
          <mxGeometry x="60" y="280" width="120" height="60" as="geometry" />
        </mxCell>
        <mxCell id="6VsXwScRPvSoh_kbBZkx-2" value="Airline Approval Service" style="rounded=1;whiteSpace=wrap;html=1;" parent="1" vertex="1">
          <mxGeometry x="530" y="420" width="120" height="60" as="geometry" />
        </mxCell>
        <mxCell id="6VsXwScRPvSoh_kbBZkx-3" value="Payment Service" style="rounded=1;whiteSpace=wrap;html=1;" parent="1" vertex="1">
          <mxGeometry x="540" y="130" width="120" height="60" as="geometry" />
        </mxCell>
        <mxCell id="6VsXwScRPvSoh_kbBZkx-4" value="Customer MDM" style="rounded=1;whiteSpace=wrap;html=1;" parent="1" vertex="1">
          <mxGeometry x="214" y="80" width="120" height="60" as="geometry" />
        </mxCell>
        <mxCell id="6VsXwScRPvSoh_kbBZkx-5" value="Airline MDM" style="rounded=1;whiteSpace=wrap;html=1;" parent="1" vertex="1">
          <mxGeometry x="214" y="460" width="120" height="60" as="geometry" />
        </mxCell>
        <mxCell id="6VsXwScRPvSoh_kbBZkx-10" value="Kafka" style="ellipse;whiteSpace=wrap;html=1;" parent="1" vertex="1">
          <mxGeometry x="334" y="255" width="160" height="110" as="geometry" />
        </mxCell>
        <mxCell id="JqxK7kBunHo9sSliP41E-4" value="" style="endArrow=classic;html=1;rounded=0;exitX=1.003;exitY=0.133;exitDx=0;exitDy=0;fillColor=#d80073;strokeColor=#A50040;exitPerimeter=0;" parent="1" source="6VsXwScRPvSoh_kbBZkx-1" edge="1">
          <mxGeometry width="50" height="50" relative="1" as="geometry">
            <mxPoint x="210.5" y="288" as="sourcePoint" />
            <mxPoint x="340" y="288" as="targetPoint" />
          </mxGeometry>
        </mxCell>
        <mxCell id="JqxK7kBunHo9sSliP41E-10" value="&lt;font style=&quot;font-size: 6px;&quot;&gt;1. PaymentRequest&lt;br&gt;&lt;/font&gt;" style="text;strokeColor=none;align=center;fillColor=none;html=1;verticalAlign=middle;whiteSpace=wrap;rounded=0;" parent="1" vertex="1">
          <mxGeometry x="204" y="273" width="106" height="20" as="geometry" />
        </mxCell>
        <mxCell id="SmDT0oh4bdPEuCV25t0c-1" value="" style="endArrow=classic;html=1;rounded=0;exitX=1.003;exitY=0.133;exitDx=0;exitDy=0;fillColor=#d80073;strokeColor=#A50040;exitPerimeter=0;" parent="1" edge="1">
          <mxGeometry width="50" height="50" relative="1" as="geometry">
            <mxPoint x="334" y="303" as="sourcePoint" />
            <mxPoint x="180" y="303" as="targetPoint" />
          </mxGeometry>
        </mxCell>
        <mxCell id="SmDT0oh4bdPEuCV25t0c-2" value="&lt;font style=&quot;font-size: 6px;&quot;&gt;4. PaymentPaidResponse&lt;br&gt;&lt;/font&gt;" style="text;strokeColor=none;align=center;fillColor=none;html=1;verticalAlign=middle;whiteSpace=wrap;rounded=0;" parent="1" vertex="1">
          <mxGeometry x="204" y="288" width="106" height="20" as="geometry" />
        </mxCell>
        <mxCell id="SmDT0oh4bdPEuCV25t0c-3" value="" style="endArrow=classic;html=1;rounded=0;exitX=1.003;exitY=0.133;exitDx=0;exitDy=0;fillColor=#d80073;strokeColor=#A50040;exitPerimeter=0;entryX=0.003;entryY=0.573;entryDx=0;entryDy=0;entryPerimeter=0;" parent="1" target="6VsXwScRPvSoh_kbBZkx-10" edge="1">
          <mxGeometry width="50" height="50" relative="1" as="geometry">
            <mxPoint x="180" y="318" as="sourcePoint" />
            <mxPoint x="340" y="318" as="targetPoint" />
          </mxGeometry>
        </mxCell>
        <mxCell id="SmDT0oh4bdPEuCV25t0c-4" value="&lt;font style=&quot;font-size: 6px;&quot;&gt;5. AirlineApprovalRequest&lt;br&gt;&lt;/font&gt;" style="text;strokeColor=none;align=center;fillColor=none;html=1;verticalAlign=middle;whiteSpace=wrap;rounded=0;" parent="1" vertex="1">
          <mxGeometry x="204" y="303" width="106" height="20" as="geometry" />
        </mxCell>
        <mxCell id="SmDT0oh4bdPEuCV25t0c-5" value="" style="endArrow=classic;html=1;rounded=0;exitX=1.003;exitY=0.133;exitDx=0;exitDy=0;fillColor=#d80073;strokeColor=#A50040;exitPerimeter=0;" parent="1" edge="1">
          <mxGeometry width="50" height="50" relative="1" as="geometry">
            <mxPoint x="341" y="333" as="sourcePoint" />
            <mxPoint x="179" y="333" as="targetPoint" />
          </mxGeometry>
        </mxCell>
        <mxCell id="SmDT0oh4bdPEuCV25t0c-6" value="&lt;font style=&quot;font-size: 6px;&quot;&gt;8. AirlineApprovedResponse&lt;br&gt;&lt;/font&gt;" style="text;strokeColor=none;align=center;fillColor=none;html=1;verticalAlign=middle;whiteSpace=wrap;rounded=0;" parent="1" vertex="1">
          <mxGeometry x="204" y="318" width="106" height="20" as="geometry" />
        </mxCell>
        <mxCell id="SmDT0oh4bdPEuCV25t0c-7" value="" style="endArrow=classic;html=1;rounded=0;fillColor=#d80073;strokeColor=#A50040;" parent="1" source="6VsXwScRPvSoh_kbBZkx-3" target="6VsXwScRPvSoh_kbBZkx-10" edge="1">
          <mxGeometry width="50" height="50" relative="1" as="geometry">
            <mxPoint x="520" y="245" as="sourcePoint" />
            <mxPoint x="360" y="245" as="targetPoint" />
          </mxGeometry>
        </mxCell>
        <mxCell id="SmDT0oh4bdPEuCV25t0c-8" value="&lt;font style=&quot;font-size: 6px;&quot;&gt;2. PaymentRequest&lt;br&gt;&lt;/font&gt;" style="text;strokeColor=none;align=center;fillColor=none;html=1;verticalAlign=middle;whiteSpace=wrap;rounded=0;rotation=-38.9;" parent="1" vertex="1">
          <mxGeometry x="427" y="201" width="106" height="20" as="geometry" />
        </mxCell>
        <mxCell id="SmDT0oh4bdPEuCV25t0c-9" value="" style="endArrow=classic;html=1;rounded=0;fillColor=#d80073;strokeColor=#A50040;entryX=-0.002;entryY=0.655;entryDx=0;entryDy=0;entryPerimeter=0;" parent="1" target="6VsXwScRPvSoh_kbBZkx-3" edge="1">
          <mxGeometry width="50" height="50" relative="1" as="geometry">
            <mxPoint x="432" y="256" as="sourcePoint" />
            <mxPoint x="529" y="178" as="targetPoint" />
          </mxGeometry>
        </mxCell>
        <mxCell id="SmDT0oh4bdPEuCV25t0c-10" value="&lt;font style=&quot;font-size: 6px;&quot;&gt;3. PaymentPaidResponse&lt;br&gt;&lt;/font&gt;" style="text;strokeColor=none;align=center;fillColor=none;html=1;verticalAlign=middle;whiteSpace=wrap;rounded=0;rotation=-38.9;" parent="1" vertex="1">
          <mxGeometry x="458" y="215" width="106" height="20" as="geometry" />
        </mxCell>
        <mxCell id="SmDT0oh4bdPEuCV25t0c-11" value="&lt;font style=&quot;font-size: 6px;&quot;&gt;6. AirlineApprovalRequest&lt;br&gt;&lt;/font&gt;" style="text;strokeColor=none;align=center;fillColor=none;html=1;verticalAlign=middle;whiteSpace=wrap;rounded=0;rotation=38.5;" parent="1" vertex="1">
          <mxGeometry x="458" y="371" width="106" height="20" as="geometry" />
        </mxCell>
        <mxCell id="SmDT0oh4bdPEuCV25t0c-12" value="" style="endArrow=classic;html=1;rounded=0;fillColor=#d80073;strokeColor=#A50040;" parent="1" source="6VsXwScRPvSoh_kbBZkx-10" target="6VsXwScRPvSoh_kbBZkx-2" edge="1">
          <mxGeometry width="50" height="50" relative="1" as="geometry">
            <mxPoint x="565" y="371.5" as="sourcePoint" />
            <mxPoint x="673" y="284.5" as="targetPoint" />
          </mxGeometry>
        </mxCell>
        <mxCell id="SmDT0oh4bdPEuCV25t0c-13" value="" style="endArrow=classic;html=1;rounded=0;fillColor=#d80073;strokeColor=#A50040;exitX=0.594;exitY=0.993;exitDx=0;exitDy=0;exitPerimeter=0;" parent="1" source="6VsXwScRPvSoh_kbBZkx-10" edge="1">
          <mxGeometry width="50" height="50" relative="1" as="geometry">
            <mxPoint x="444" y="376" as="sourcePoint" />
            <mxPoint x="530" y="444" as="targetPoint" />
          </mxGeometry>
        </mxCell>
        <mxCell id="SmDT0oh4bdPEuCV25t0c-14" value="&lt;font style=&quot;font-size: 6px;&quot;&gt;7. AirlineApprovedResponse&lt;br&gt;&lt;/font&gt;" style="text;strokeColor=none;align=center;fillColor=none;html=1;verticalAlign=middle;whiteSpace=wrap;rounded=0;rotation=38.5;" parent="1" vertex="1">
          <mxGeometry x="427" y="388" width="106" height="20" as="geometry" />
        </mxCell>
        <mxCell id="hdrF3N8q4cxZ85Nu2Xs1-2" value="&lt;u&gt;Order Saga&amp;nbsp; Request/Response Messages&lt;/u&gt;" style="text;html=1;strokeColor=none;fillColor=none;align=left;verticalAlign=middle;whiteSpace=wrap;rounded=0;" vertex="1" parent="1">
          <mxGeometry x="60" y="30" width="240" height="30" as="geometry" />
        </mxCell>
      </root>
    </mxGraphModel>
  </diagram>
</mxfile>
